<svg xmlns="http://www.w3.org/2000/svg" width="41" height="41" viewBox="0 0 41 41" fill="none"><g clip-path="url(#clip0_244_418)"><path d="M34.7712 6.51739C27.3121 -1.25669 13.8909 -1.25637 6.432 6.51739C-1.34207 13.9764 -1.34176 27.3977 6.432 34.8566C13.891 42.6306 27.3123 42.6303 34.7712 34.8566C42.5452 27.3974 42.5448 13.9762 34.7712 6.51739ZM20.6015 38.3683C10.852 38.3683 2.92016 30.4364 2.92016 20.6869C3.89138 -2.76982 37.3152 -2.76298 38.2829 20.6871C38.2829 30.4365 30.3511 38.3683 20.6015 38.3683Z" fill="#040401"></path><path d="M33.5676 20.6867H35.9251C35.0809 0.352486 6.11387 0.368201 5.27734 20.6867H7.63486C7.63486 19.2731 7.86307 17.912 8.28318 16.6373L10.5159 18.1303L11.8264 16.1706L9.24104 14.4417C10.1837 12.7339 11.4997 11.2599 13.079 10.1312L14.2061 12.8822L16.3876 11.9885L15.1348 8.93078C16.4587 8.3128 17.9031 7.91202 19.4226 7.7745V11.2566H21.7801V7.7745C23.5303 7.933 25.181 8.4405 26.6622 9.22705L25.4226 11.9464L27.5678 12.9242L28.6573 10.5341C30.0003 11.6019 31.1274 12.9301 31.9616 14.4416L29.3763 16.1705L30.6867 18.1302L32.9195 16.6372C33.3393 17.912 33.5676 19.2731 33.5676 20.6867Z" fill="#040401"></path><path d="M23.0541 14.3286L20.8311 19.5163C18.7695 19.3831 17.0649 21.027 17.0649 23.0443C17.0649 24.9942 18.6512 26.5806 20.6012 26.5806C23.8224 26.5721 25.3422 22.5999 22.9973 20.4464L25.2209 15.2573L23.0541 14.3286ZM20.6012 24.223C19.9512 24.223 19.4225 23.6942 19.4225 23.0442C19.4871 21.4804 21.7155 21.4809 21.78 23.0442C21.78 23.6943 21.2513 24.223 20.6012 24.223Z" fill="#FF3600"></path><path d="M6.45605 24.223H8.81357V26.5805H6.45605V24.223Z" fill="#040401"></path><path d="M11.1714 27.7593H13.5289V30.1168H11.1714V27.7593Z" fill="#040401"></path><path d="M32.3887 24.223H34.7462V26.5805H32.3887V24.223Z" fill="#040401"></path><path d="M27.6738 27.7593H30.0313V30.1168H27.6738V27.7593Z" fill="#040401"></path><path d="M15.8862 31.2955C16.146 37.5522 25.0589 37.5474 25.3163 31.2955V28.938H15.8862V31.2955ZM22.9588 31.2955C22.8289 34.4239 18.3725 34.4214 18.2437 31.2955H22.9588Z" fill="#040401"></path></g><defs><clipPath id="clip0_244_418"><rect width="40" height="40" fill="white" transform="translate(0.601074 0.686707)"></rect></clipPath></defs></svg>